<svg height='100px' width='100px'  fill="#ffffff" xmlns:dc="http://purl.org/dc/elements/1.1/" xmlns:cc="http://creativecommons.org/ns#" xmlns:rdf="http://www.w3.org/1999/02/22-rdf-syntax-ns#" xmlns:svg="http://www.w3.org/2000/svg" xmlns="http://www.w3.org/2000/svg" xmlns:sodipodi="http://sodipodi.sourceforge.net/DTD/sodipodi-0.dtd" xmlns:inkscape="http://www.inkscape.org/namespaces/inkscape" version="1.1" x="0px" y="0px" viewBox="0 0 100 100"><g transform="translate(0,-952.36218)"><path d="m 91,967.36213 c 1.108,0 2,0.892 2,2 l 0,16 -86,0 0,-16 c 0,-1.108 0.892,-2 2,-2 l 82,0 z m -18,5 c -2.2091,0 -4,1.7909 -4,4 0,2.2092 1.7909,4 4,4 2.2091,0 4,-1.7908 4,-4 0,-2.2091 -1.7909,-4 -4,-4 z m -46,0 c -2.2091,0 -4,1.7909 -4,4 0,2.2092 1.7909,4 4,4 2.2091,0 4,-1.7908 4,-4 0,-2.2091 -1.7909,-4 -4,-4 z m 66,17 0,46.00007 c 0,1.108 -0.892,2 -2,2 l -82,0 c -1.108,0 -2,-0.892 -2,-2 l 0,-46.00007 86,0 z m -13,8 -12,0 0,13.99997 12,0 0,-13.99997 z m -16,0 -12,0 0,13.99997 12,0 0,-13.99997 z m -16,0 -12,0 0,13.99997 12,0 0,-13.99997 z m -16,0 -12,0 0,13.99997 12,0 0,-13.99997 z m 48,18.00007 -12,0 0,14 12,0 0,-14 z m -16,0 -12,0 0,14 12,0 0,-14 z m -16,0 -12,0 0,14 12,0 0,-14 z" style="color:#000000;enable-background:accumulate;" fill="#ffffff" stroke="none" marker="none" visibility="visible" display="inline" overflow="visible"></path></g></svg>