<svg height='100px' width='100px'  fill="#ffffff" xmlns="http://www.w3.org/2000/svg" xmlns:xlink="http://www.w3.org/1999/xlink" version="1.1" x="0px" y="0px" viewBox="0 0 64 64" style="enable-background:new 0 0 64 64;" xml:space="preserve"><path d="M45.9,49.3c0.5,0,1.1-0.4,1.1-1.1V4.4c0-0.6-0.5-1.1-1.1-1.1H10.1C9.5,3.3,9,3.8,9,4.4v45.9c0.8-0.6,1.9-1,3-1H45.9z   M34,15.3H22c-0.5,0-1-0.5-1-1s0.5-1,1-1h12c0.5,0,1,0.5,1,1S34.5,15.3,34,15.3z M42,45.3h1v-1c0-0.5,0.5-1,1-1s1,0.5,1,1v1.1  c0,1.1-0.8,1.9-1.9,1.9H42c-0.5,0-1-0.5-1-1S41.5,45.3,42,45.3z M20,9.3h16c0.5,0,1,0.5,1,1s-0.5,1-1,1H20c-0.5,0-1-0.5-1-1  S19.5,9.3,20,9.3z M11,8.2c0-1.6,1.3-2.9,2.9-2.9H16c0.5,0,1,0.5,1,1s-0.5,1-1,1h-2.1c-0.5,0-0.9,0.5-0.9,0.9v2.1c0,0.5-0.5,1-1,1  s-1-0.5-1-1V8.2z M11,16.3v-2c0-0.5,0.5-1,1-1s1,0.5,1,1v2c0,0.5-0.5,1-1,1S11,16.9,11,16.3z"></path><path d="M54.1,5.3H49v42.9c0,1.7-1.4,3.1-3.1,3.1H12c-1.7,0-3.1,1.4-3,3c0.3,3.5,4,3,4,3v-2c0,0-2,0.3-2-1c0-0.5,0.5-1,1-1h38.3  c0.5,0,0.7-0.4,0.7-0.7V8.3c0-0.5,0.5-1,1-1s1,0.5,1,1v44.3c0,1.5-1.2,2.7-2.7,2.7H23v2.1h31.1c0.6,0,0.9-0.5,0.9-0.9V6.2  C55,5.7,54.5,5.3,54.1,5.3z"></path><polygon points="15,60.7 18,59.2 21,60.7 21,55.3 15,55.3 "></polygon></svg>