<svg height='100px' width='100px'  fill="#1a1a1a" xmlns:x="http://ns.adobe.com/Extensibility/1.0/" xmlns:i="http://ns.adobe.com/AdobeIllustrator/10.0/" xmlns:graph="http://ns.adobe.com/Graphs/1.0/" xmlns="http://www.w3.org/2000/svg" xmlns:xlink="http://www.w3.org/1999/xlink" version="1.1" x="0px" y="0px" viewBox="0 0 100 100" style="enable-background:new 0 0 100 100;" xml:space="preserve"><g><g i:extraneous="self"><g><path d="M5273.1,2400.1v-2c0-2.8-5-4-9.7-4s-9.7,1.3-9.7,4v2c0,1.8,0.7,3.6,2,4.9l5,4.9c0.3,0.3,0.4,0.6,0.4,1v6.4     c0,0.4,0.2,0.7,0.6,0.8l2.9,0.9c0.5,0.1,1-0.2,1-0.8v-7.2c0-0.4,0.2-0.7,0.4-1l5.1-5C5272.4,2403.7,5273.1,2401.9,5273.1,2400.1z      M5263.4,2400c-4.8,0-7.4-1.3-7.5-1.8v0c0.1-0.5,2.7-1.8,7.5-1.8c4.8,0,7.3,1.3,7.5,1.8C5270.7,2398.7,5268.2,2400,5263.4,2400z"></path><path d="M5268.4,2410.3c-0.6,0-1,0.4-1,1c0,0.6,0.4,1,1,1h4.3c0.6,0,1-0.4,1-1c0-0.6-0.4-1-1-1H5268.4z"></path><path d="M5272.7,2413.7h-4.3c-0.6,0-1,0.4-1,1c0,0.6,0.4,1,1,1h4.3c0.6,0,1-0.4,1-1C5273.7,2414.1,5273.3,2413.7,5272.7,2413.7z"></path><path d="M5272.7,2417h-4.3c-0.6,0-1,0.4-1,1c0,0.6,0.4,1,1,1h4.3c0.6,0,1-0.4,1-1C5273.7,2417.5,5273.3,2417,5272.7,2417z"></path></g><g><path d="M66,30.9c-1-0.6-2.1-0.3-3.1,0.8c-1,1-2.7,3.2-2.7,3.2c-0.9,0.9-1.7,0.3-1.7-0.6c0.1-1.7,0.2-2.8,0.4-4.7     c0.2-1.9,1.8-10.7,1.8-10.7c0.2-1.1-0.6-2.2-1.7-2.4c-1.1-0.2-2.2,0.6-2.4,1.7L54.8,29c0,0.3-0.3,0.5-0.6,0.5l-0.2,0     c-0.4,0-0.7-0.3-0.7-0.7l0.7-13.2c0.1-1.1-0.8-2.1-1.9-2.2c-1.1,0-2.1,0.8-2.2,1.9l-0.8,13.8c0,0.3-0.3,0.6-0.6,0.6     c-0.4,0-0.6-0.2-0.7-0.6l-0.6-11.9c-0.1-1.1-1-2-2.1-1.9c-1.1,0.1-2,1-1.9,2.1l0.6,11.9c0,0.3-0.3,0.6-0.6,0.7l0,0     c-0.3,0-0.6-0.2-0.7-0.6l-1.1-9.1c-0.1-1.1-1.2-1.9-2.3-1.8c-1.1,0.1-1.9,1.2-1.8,2.3c0,0,1.7,12.6,2.4,17.2     c0.4,2.8,1.1,5.4,2.5,7.2c0,0.1,0,0.2,0.1,0.3c0.3,1.6,0.7,3.4,0.7,5v35c0,0.6,0.5,1.1,1.1,1.1h11.6c0.6,0,1.1-0.5,1.1-1.1v-35     c0-1.3,0.3-2.7,0.7-4v-0.1c0.8-0.5,1.6-1.3,2.3-2c2.7-3,7.1-10.3,7.1-10.3C67.4,33.1,67.1,31.6,66,30.9z"></path><path d="M29.7,67.1c0-0.1,0-0.3,0-0.4c1-2,1-4.7,0.7-7.5c-0.4-4.6-1.8-17.3-1.8-17.3c-0.1-1.1-1.1-1.9-2.3-1.8     c-1.1,0.1-1.9,1.1-1.8,2.3l1,9.2c0,0.3-0.2,0.6-0.5,0.7l0,0c-0.3,0.1-0.7-0.2-0.7-0.5L22.1,40c-0.2-1.1-1.3-1.8-2.4-1.6     c-1.1,0.2-1.8,1.3-1.6,2.4l2.2,11.7c0.1,0.3-0.2,0.7-0.5,0.7c-0.3,0.1-0.6-0.1-0.7-0.4l-4-13.3c-0.3-1.1-1.5-1.7-2.6-1.4     c-1.1,0.3-1.7,1.5-1.4,2.6L15,53.4c0.1,0.4-0.1,0.7-0.5,0.8l-0.2,0c-0.3,0.1-0.6-0.1-0.7-0.4L9.3,43.8c-0.4-1-1.6-1.5-2.7-1.1     c-1,0.4-1.5,1.6-1.1,2.7c0,0,3.6,8.2,4.3,10c0.7,1.8,1,2.8,1.5,4.4c0.3,0.9-0.4,1.7-1.5,1c0,0-2.2-1.7-3.4-2.5     c-1.2-0.8-2.4-0.9-3.2,0c-0.9,0.9-0.9,2.4,0.1,3.3c0,0,6,6,9.3,8.3c0.8,0.5,1.7,1.1,2.6,1.4c0,0,0,0,0,0.1     c0.8,1.2,1.3,2.6,1.7,3.9l2.5,10.4c0.1,0.5,0.5,0.8,1,0.8h12c0.7,0,1.2-0.6,1-1.3L30.2,72C29.9,70.5,29.8,68.7,29.7,67.1z"></path><path d="M96.8,58.4c-0.9-0.9-2-0.8-3.2,0c-1.2,0.8-3.4,2.5-3.4,2.5c-1.1,0.7-1.8-0.1-1.5-1c0.5-1.6,0.8-2.6,1.5-4.4     c0.7-1.8,4.3-10,4.3-10c0.4-1,0-2.2-1.1-2.7c-1-0.4-2.2,0-2.7,1.1l-4.3,10.1c-0.1,0.3-0.4,0.4-0.7,0.4l-0.2,0     c-0.4-0.1-0.6-0.4-0.5-0.8l3.8-12.7c0.3-1.1-0.3-2.2-1.4-2.6c-1.1-0.3-2.2,0.3-2.6,1.4l-4,13.3c-0.1,0.3-0.4,0.5-0.7,0.4     c-0.3-0.1-0.6-0.4-0.5-0.7l2.2-11.7c0.2-1.1-0.5-2.2-1.6-2.4c-1.1-0.2-2.2,0.5-2.4,1.6l-2.2,11.7c-0.1,0.3-0.4,0.6-0.7,0.5l0,0     c-0.3-0.1-0.5-0.4-0.5-0.7l1-9.2c0.1-1.1-0.7-2.1-1.8-2.3c-1.1-0.1-2.1,0.7-2.3,1.8c0,0-1.3,12.7-1.8,17.3     c-0.3,2.8-0.2,5.6,0.8,7.6c0,0.1,0,0.2,0,0.2c-0.1,1.6-0.2,3.5-0.6,5l-3.2,13.2c-0.2,0.7,0.3,1.3,1,1.3h12.1c0.5,0,0.9-0.3,1-0.8     l2.5-10.4c0.3-1.3,0.9-2.7,1.6-3.9c0,0,0,0,0,0c0.9-0.3,1.9-0.8,2.7-1.4c3.4-2.3,9.3-8.3,9.3-8.3C97.7,60.8,97.8,59.3,96.8,58.4z     "></path></g></g></g></svg>